<?xml version="1.0" encoding="UTF-8" standalone="no"?>
<svg
   viewBox="0 0 192 152"
   style="display:inline;enable-background:new"
   version="1.0"
   inkscape:output_extension="org.inkscape.output.svg.inkscape"
   sodipodi:docname="io.github.unrud.RecentFilter.Source.svg"
   inkscape:version="1.2.2 (b0a8486541, 2022-12-01)"
   sodipodi:version="0.32"
   id="svg11300"
   height="152"
   width="192"
   inkscape:export-filename="Template.png"
   inkscape:export-xdpi="96"
   inkscape:export-ydpi="96"
   xmlns:inkscape="http://www.inkscape.org/namespaces/inkscape"
   xmlns:sodipodi="http://sodipodi.sourceforge.net/DTD/sodipodi-0.dtd"
   xmlns="http://www.w3.org/2000/svg"
   xmlns:svg="http://www.w3.org/2000/svg"
   xmlns:rdf="http://www.w3.org/1999/02/22-rdf-syntax-ns#"
   xmlns:cc="http://creativecommons.org/ns#"
   xmlns:dc="http://purl.org/dc/elements/1.1/">
  <title
     id="title4162">Adwaita Icon Template</title>
  <defs
     id="defs3" />
  <sodipodi:namedview
     inkscape:document-rotation="0"
     borderlayer="true"
     inkscape:snap-text-baseline="true"
     inkscape:snap-smooth-nodes="true"
     inkscape:snap-midpoints="true"
     inkscape:snap-object-midpoints="true"
     inkscape:snap-center="true"
     showborder="true"
     inkscape:snap-bbox-midpoints="true"
     inkscape:snap-bbox-edge-midpoints="true"
     inkscape:snap-intersection-paths="true"
     inkscape:object-paths="true"
     inkscape:snap-global="true"
     inkscape:bbox-nodes="true"
     inkscape:object-nodes="true"
     inkscape:measure-end="0,0"
     inkscape:measure-start="0,0"
     inkscape:locked="false"
     inkscape:guide-bbox="true"
     showguides="false"
     inkscape:pagecheckerboard="false"
     inkscape:window-maximized="1"
     guidetolerance="13"
     gridtolerance="12"
     objecttolerance="7"
     inkscape:snap-bbox="true"
     inkscape:snap-nodes="true"
     height="300px"
     width="400px"
     inkscape:window-y="0"
     inkscape:window-x="0"
     inkscape:window-height="1011"
     inkscape:window-width="1920"
     inkscape:showpageshadow="false"
     inkscape:document-units="px"
     inkscape:grid-bbox="true"
     showgrid="false"
     inkscape:current-layer="layer9"
     inkscape:cy="85.957117"
     inkscape:cx="80.710384"
     inkscape:zoom="4.4789776"
     inkscape:pageshadow="2"
     inkscape:pageopacity="0.0"
     borderopacity="0.25490196"
     bordercolor="#666666"
     pagecolor="#ffffff"
     id="base"
     fill="#f57900"
     stroke="#ef2929"
     inkscape:deskcolor="#d1d1d1">
    <inkscape:grid
       originy="8"
       originx="8"
       empspacing="4"
       visible="true"
       enabled="true"
       spacingy="2"
       spacingx="2"
       id="grid5883"
       type="xygrid" />
    <sodipodi:guide
       inkscape:color="rgb(0,0,255)"
       inkscape:label=""
       inkscape:locked="false"
       id="guide1073"
       orientation="0,1"
       position="72,16" />
    <sodipodi:guide
       inkscape:color="rgb(0,0,255)"
       inkscape:label=""
       inkscape:locked="false"
       id="guide1075"
       orientation="1,0"
       position="20,72" />
    <sodipodi:guide
       inkscape:color="rgb(0,0,255)"
       inkscape:label=""
       inkscape:locked="false"
       id="guide1099"
       orientation="0,1"
       position="72,112" />
    <sodipodi:guide
       inkscape:color="rgb(0,0,255)"
       inkscape:label=""
       inkscape:locked="false"
       id="guide993"
       orientation="0,1"
       position="72,136" />
    <sodipodi:guide
       inkscape:color="rgb(0,0,255)"
       inkscape:label=""
       inkscape:locked="false"
       id="guide995"
       orientation="1,0"
       position="112,72" />
    <sodipodi:guide
       inkscape:color="rgb(0,0,255)"
       inkscape:label=""
       inkscape:locked="false"
       id="guide867"
       orientation="1,0"
       position="8.0000001,72" />
    <sodipodi:guide
       inkscape:color="rgb(0,0,255)"
       inkscape:label=""
       inkscape:locked="false"
       id="guide869"
       orientation="1,0"
       position="128,72" />
    <sodipodi:guide
       inkscape:color="rgb(0,0,255)"
       inkscape:label=""
       inkscape:locked="false"
       id="guide871"
       orientation="0,1"
       position="72,124" />
    <inkscape:grid
       originy="8"
       originx="8"
       dotted="true"
       empopacity="0.08627451"
       empcolor="#000000"
       opacity="0.49019608"
       color="#000000"
       empspacing="8"
       spacingy="1"
       spacingx="1"
       id="grid873"
       type="xygrid" />
    <sodipodi:guide
       inkscape:color="rgb(0,0,255)"
       inkscape:label=""
       inkscape:locked="false"
       id="guide877"
       orientation="1,0"
       position="32,72" />
    <sodipodi:guide
       inkscape:color="rgb(0,0,255)"
       inkscape:label=""
       inkscape:locked="false"
       id="guide879"
       orientation="1,0"
       position="124,72" />
    <sodipodi:guide
       inkscape:color="rgb(0,0,255)"
       inkscape:label=""
       inkscape:locked="false"
       id="guide881"
       orientation="0,1"
       position="72,128" />
    <sodipodi:guide
       inkscape:color="rgb(0,0,255)"
       inkscape:label=""
       inkscape:locked="false"
       id="guide883"
       orientation="0,1"
       position="72,20" />
    <sodipodi:guide
       inkscape:color="rgb(0,0,255)"
       inkscape:label=""
       inkscape:locked="false"
       id="guide885"
       orientation="1,0"
       position="16,72" />
    <sodipodi:guide
       inkscape:color="rgb(0,0,255)"
       inkscape:label=""
       inkscape:locked="false"
       id="guide887"
       orientation="1,0"
       position="136,72" />
    <sodipodi:guide
       inkscape:color="rgb(0,0,255)"
       inkscape:label=""
       inkscape:locked="false"
       id="guide897"
       orientation="0,1"
       position="72,8" />
    <sodipodi:guide
       inkscape:color="rgb(0,0,255)"
       inkscape:label=""
       inkscape:locked="false"
       id="guide899"
       orientation="0,1"
       position="72,32" />
    <sodipodi:guide
       inkscape:color="rgb(0,0,255)"
       inkscape:label=""
       inkscape:locked="false"
       id="guide950"
       orientation="-0.70710678,0.70710678"
       position="264,264" />
    <sodipodi:guide
       inkscape:color="rgb(0,0,255)"
       inkscape:label=""
       inkscape:locked="false"
       id="guide952"
       orientation="0.70710678,0.70710678"
       position="72,72" />
  </sodipodi:namedview>
  <metadata
     id="metadata4">
    <rdf:RDF>
      <cc:Work
         rdf:about="">
        <dc:format>image/svg+xml</dc:format>
        <dc:type
           rdf:resource="http://purl.org/dc/dcmitype/StillImage" />
        <dc:creator>
          <cc:Agent>
            <dc:title>GNOME Design Team</dc:title>
          </cc:Agent>
        </dc:creator>
        <dc:source />
        <cc:license
           rdf:resource="http://creativecommons.org/licenses/by-sa/4.0/" />
        <dc:title>Adwaita Icon Template</dc:title>
        <dc:subject>
          <rdf:Bag />
        </dc:subject>
        <dc:date />
        <dc:rights>
          <cc:Agent>
            <dc:title />
          </cc:Agent>
        </dc:rights>
        <dc:publisher>
          <cc:Agent>
            <dc:title />
          </cc:Agent>
        </dc:publisher>
        <dc:identifier />
        <dc:relation />
        <dc:language />
        <dc:coverage />
        <dc:description />
        <dc:contributor>
          <cc:Agent>
            <dc:title />
          </cc:Agent>
        </dc:contributor>
      </cc:Work>
      <cc:License
         rdf:about="http://creativecommons.org/licenses/by-sa/4.0/">
        <cc:permits
           rdf:resource="http://creativecommons.org/ns#Reproduction" />
        <cc:permits
           rdf:resource="http://creativecommons.org/ns#Distribution" />
        <cc:requires
           rdf:resource="http://creativecommons.org/ns#Notice" />
        <cc:requires
           rdf:resource="http://creativecommons.org/ns#Attribution" />
        <cc:permits
           rdf:resource="http://creativecommons.org/ns#DerivativeWorks" />
        <cc:requires
           rdf:resource="http://creativecommons.org/ns#ShareAlike" />
      </cc:License>
    </rdf:RDF>
  </metadata>
  <g
     transform="translate(8,-156)"
     style="display:inline"
     inkscape:groupmode="layer"
     inkscape:label="App Icon"
     id="layer1">
    <g
       style="display:inline"
       inkscape:label="template"
       id="layer4"
       inkscape:groupmode="layer"
       sodipodi:insensitive="true">
      <rect
         style="display:inline;overflow:visible;visibility:visible;fill:#f0f0f0;fill-opacity:0;fill-rule:nonzero;stroke:none;stroke-width:0.5;marker:none;enable-background:accumulate"
         id="hicolor"
         width="128"
         height="128"
         x="9.2651362e-08"
         y="172"
         inkscape:label="0" />
      <rect
         inkscape:label="0"
         y="172"
         x="160"
         height="16"
         width="16"
         id="symbolic"
         style="display:inline;overflow:visible;visibility:visible;fill:#f0f0f0;fill-opacity:0;fill-rule:nonzero;stroke:none;stroke-width:0.5;marker:none;enable-background:accumulate" />
    </g>
    <g
       sodipodi:insensitive="true"
       style="display:inline"
       inkscape:label="baseplate"
       id="layer2"
       inkscape:groupmode="layer">
      <g
         inkscape:export-ydpi="12"
         inkscape:export-xdpi="12"
         id="g12027"
         transform="matrix(7.9911709,0,0,8.0036407,-167.7909,-4846.0776)"
         style="display:inline;fill:#000000;enable-background:new" />
      <rect
         inkscape:label="0"
         y="172"
         x="9.2651362e-08"
         height="128"
         width="128"
         id="128"
         style="display:inline;overflow:visible;visibility:visible;fill:#f0f0f0;fill-opacity:1;fill-rule:nonzero;stroke:none;stroke-width:0.5;marker:none;enable-background:accumulate" />
      <g
         transform="translate(-24,24)"
         style="fill:none;fill-opacity:0.25098;stroke:#a579b3;stroke-opacity:1"
         id="g883" />
      <g
         transform="translate(-24,24)"
         style="fill:none;fill-opacity:0.25098;stroke:#a579b3;stroke-opacity:1"
         id="g900" />
      <rect
         style="display:inline;overflow:visible;visibility:visible;fill:#f0f0f0;fill-opacity:1;fill-rule:nonzero;stroke:none;stroke-width:0.5;marker:none;enable-background:accumulate"
         id="16"
         width="16"
         height="16"
         x="160"
         y="172"
         inkscape:label="" />
      <text
         inkscape:label="icon-name"
         id="text863"
         y="167"
         x="0"
         style="font-style:normal;font-variant:normal;font-weight:bold;font-stretch:normal;font-size:4px;line-height:125%;font-family:Cantarell;-inkscape-font-specification:'Cantarell, Bold';text-align:start;writing-mode:lr-tb;text-anchor:start;display:inline;fill:#000000;fill-opacity:1;stroke:none;stroke-width:0.332649;enable-background:new"
         xml:space="preserve"><tspan
           y="167"
           x="0"
           id="tspan861"
           sodipodi:role="line"
           style="font-size:4px;stroke-width:0.332649">Hicolor</tspan></text>
      <text
         xml:space="preserve"
         style="font-style:normal;font-variant:normal;font-weight:bold;font-stretch:normal;font-size:4px;line-height:125%;font-family:Cantarell;-inkscape-font-specification:'Cantarell, Bold';text-align:start;writing-mode:lr-tb;text-anchor:start;display:inline;fill:#000000;fill-opacity:1;stroke:none;stroke-width:0.332649;enable-background:new"
         x="160"
         y="167"
         id="text867"
         inkscape:label="icon-name"><tspan
           style="font-size:4px;stroke-width:0.332649"
           sodipodi:role="line"
           id="tspan865"
           x="160"
           y="167">Symbolic</tspan></text>
    </g>
    <g
       style="display:inline"
       inkscape:label="icons"
       id="layer9"
       inkscape:groupmode="layer">
      <path
         id="path12980"
         style="fill:#deddda;stroke-width:8.76492;stroke-linecap:round;stroke-linejoin:round"
         d="M 64 176 A 60 60 0 0 0 4 236 A 60 60 0 0 0 64 296 A 60 60 0 0 0 92.982422 288.36328 A 30.726 30.726 0 0 0 120.25391 257.88477 A 30.726 30.726 0 0 0 120.2207 256.52344 A 60 60 0 0 0 124 236 A 60 60 0 0 0 64 176 z " />
      <path
         id="path5655"
         style="color:#000000;fill:#3d3846;stroke-width:0.933334;-inkscape-stroke:none"
         d="M 63.999998,180 C 33.160555,180 8,205.16055 8,236 c 0,30.83944 25.160556,56 55.999998,56 7.414008,0 14.493057,-1.46757 20.979947,-4.10521 A 30.45933,30.459331 0 0 1 66.014321,277.01562 c -0.667238,0.0318 -1.338854,0.0511 -2.014322,0.0511 -22.768888,0 -41.066665,-18.29779 -41.066665,-41.06667 0,-22.76889 18.297777,-41.06667 41.066665,-41.06667 21.263451,0 38.622841,15.96025 40.826041,36.61511 a 30.45933,30.459331 0 0 1 13.71197,17.09713 C 119.48388,244.57759 120,240.34851 120,236.00005 c 0,-30.83945 -25.160559,-56 -56.000001,-56 z" />
      <path
         id="path6188"
         style="color:#000000;fill:#3d3846;stroke-width:0.933334;stroke-linecap:round;stroke-linejoin:round;-inkscape-stroke:none"
         d="m 86.188539,210.10182 a 3.7333332,3.7333333 0 0 0 -2.639584,1.09557 L 64.049217,230.72812 51.155728,217.85286 a 3.7333332,3.7333333 0 0 0 -5.28099,0.004 3.7333332,3.7333333 0 0 0 0.0036,5.27916 L 61.4151,238.64896 a 3.7337065,3.7337067 0 0 0 3.957553,0.80573 30.45933,30.459331 0 0 1 7.710938,-7.20782 l 15.749998,-15.7737 a 3.7333332,3.7333333 0 0 0 -0.0036,-5.28098 3.7333332,3.7333333 0 0 0 -2.641406,-1.09011 z" />
      <circle
         style="fill:#e01b24;fill-opacity:1;stroke:none;stroke-width:12.8355;stroke-linecap:round;stroke-linejoin:round;stroke-dasharray:none;stroke-opacity:1"
         id="path7792"
         cx="89.527168"
         cy="257.88416"
         r="26.726023" />
      <path
         style="fill:#f6f5f4;fill-opacity:1;stroke:#f6f5f4;stroke-width:7.46666;stroke-linecap:round;stroke-linejoin:round;stroke-dasharray:none;stroke-opacity:1"
         d="m 78.645284,247.00228 21.763766,21.76378"
         id="path10103"
         sodipodi:nodetypes="cc" />
      <path
         style="fill:#f6f5f4;fill-opacity:1;stroke:#f6f5f4;stroke-width:7.46666;stroke-linecap:round;stroke-linejoin:round;stroke-dasharray:none;stroke-opacity:1"
         d="M 100.40905,247.00228 78.645284,268.76606"
         id="path10835"
         sodipodi:nodetypes="cc" />
      <path
         id="path11011"
         style="color:#000000;fill:#241f31;stroke-width:0.133332;-inkscape-stroke:none;fill-opacity:1"
         d="m 168.00001,172.00029 c -4.40564,0 -8.00001,3.59431 -8.00001,7.99989 0,4.40555 3.59437,7.99986 8.00001,7.99986 1.05914,0 2.07044,-0.20964 2.99713,-0.58644 a 4.3513347,4.3512663 0 0 1 -2.70938,-1.55415 c -0.0954,0.004 -0.19126,0.007 -0.28775,0.007 -3.2527,0 -5.86667,-2.61392 -5.86667,-5.86657 0,-3.25264 2.61397,-5.86658 5.86667,-5.86658 3.03763,0 5.51754,2.28 5.83228,5.23065 a 4.3513347,4.3512663 0 0 1 1.95886,2.44241 C 175.92628,181.22523 176,180.62108 176,179.99988 176,175.59431 172.40563,172 168.00001,172 Z" />
      <path
         id="path11013"
         style="color:#000000;fill:#241f31;stroke-width:0.133332;stroke-linecap:round;stroke-linejoin:round;-inkscape-stroke:none;fill-opacity:1"
         d="m 171.16979,176.30048 a 0.53333353,0.53332515 0 0 0 -0.37709,0.15652 l -2.78566,2.79005 -1.84194,-1.83929 a 0.53333353,0.53332515 0 0 0 -0.75442,5.3e-4 0.53333353,0.53332515 0 0 0 5.2e-4,0.75416 l 2.21953,2.21611 a 0.53338687,0.53337849 0 0 0 0.56536,0.11511 4.3513347,4.3512663 0 0 1 1.10157,-1.02968 l 2.25,-2.25335 a 0.53333353,0.53332515 0 0 0 -5.4e-4,-0.75441 0.53333353,0.53332515 0 0 0 -0.37734,-0.15574 z" />
      <path
         id="circle11015"
         style="fill:#241f31;stroke-width:1.83363;stroke-linecap:round;stroke-linejoin:round"
         d="m 171.64648,179.30859 a 3.8180048,3.8179448 0 0 0 -3.81836,3.81836 3.8180048,3.8179448 0 0 0 3.81836,3.81836 3.8180048,3.8179448 0 0 0 3.81836,-3.81836 3.8180048,3.8179448 0 0 0 -3.81836,-3.81836 z m -1.55468,1.73047 a 0.53333002,0.53333002 0 0 1 0.37695,0.15625 l 1.17773,1.17774 1.17774,-1.17774 a 0.53333002,0.53333002 0 0 1 0.37695,-0.15625 0.53333002,0.53333002 0 0 1 0.37695,0.15625 0.53333002,0.53333002 0 0 1 0,0.75391 l -1.17773,1.17773 1.17773,1.17774 a 0.53333002,0.53333002 0 0 1 0,0.7539 0.53333002,0.53333002 0 0 1 -0.7539,0 l -1.17774,-1.17773 -1.17773,1.17773 a 0.53333002,0.53333002 0 0 1 -0.75391,0 0.53333002,0.53333002 0 0 1 0,-0.7539 l 1.17774,-1.17774 -1.17774,-1.17773 a 0.53333002,0.53333002 0 0 1 0,-0.75391 0.53333002,0.53333002 0 0 1 0.37696,-0.15625 z" />
      <g
         id="path11017"
         transform="translate(7.5775652,-7.4617048)" />
    </g>
    <g
       sodipodi:insensitive="true"
       style="display:inline"
       inkscape:label="grid"
       id="layer3"
       inkscape:groupmode="layer">
      <circle
         style="display:inline;opacity:0.1;vector-effect:none;fill:none;fill-opacity:1;stroke:#000000;stroke-width:0.99;stroke-linecap:butt;stroke-linejoin:miter;stroke-miterlimit:4;stroke-dasharray:0.99, 0.99;stroke-dashoffset:0;stroke-opacity:1;marker:none;marker-start:none;marker-mid:none;marker-end:none;paint-order:normal;enable-background:new"
         id="circle2892"
         r="59.504131"
         cy="236"
         cx="64.000031" />
      <rect
         style="display:inline;opacity:0.1;vector-effect:none;fill:none;fill-opacity:1;stroke:#000000;stroke-width:0.99;stroke-linecap:butt;stroke-linejoin:miter;stroke-miterlimit:4;stroke-dasharray:0.99, 0.99;stroke-dashoffset:0;stroke-opacity:1;marker:none;marker-start:none;marker-mid:none;marker-end:none;paint-order:normal;enable-background:new"
         id="rect2894"
         width="87.009987"
         height="111.01005"
         x="20.495007"
         y="180.49496"
         rx="8.701004"
         ry="7.9292889" />
      <rect
         style="display:inline;opacity:0.1;vector-effect:none;fill:none;fill-opacity:1;stroke:#000000;stroke-width:0.99;stroke-linecap:butt;stroke-linejoin:miter;stroke-miterlimit:4;stroke-dasharray:0.99, 0.99;stroke-dashoffset:0;stroke-opacity:1;marker:none;marker-start:none;marker-mid:none;marker-end:none;paint-order:normal;enable-background:new"
         id="rect2896"
         width="103.00952"
         height="103.00952"
         x="12.495266"
         y="184.49524"
         rx="7.9238095"
         ry="7.9238095" />
      <rect
         style="display:inline;opacity:0.1;vector-effect:none;fill:none;fill-opacity:1;stroke:#000000;stroke-width:0.99;stroke-linecap:butt;stroke-linejoin:miter;stroke-miterlimit:4;stroke-dasharray:0.99, 0.99;stroke-dashoffset:0;stroke-opacity:1;marker:none;marker-start:none;marker-mid:none;marker-end:none;paint-order:normal;enable-background:new"
         id="rect2898"
         width="111.01004"
         height="87.010048"
         x="8.4950066"
         y="200.49496"
         rx="7.9292889"
         ry="8.701005" />
      <path
         style="display:inline;fill:none;stroke:#62a0ea;stroke-width:2;stroke-linecap:butt;stroke-linejoin:miter;stroke-miterlimit:4;stroke-dasharray:none;stroke-opacity:1;enable-background:new"
         d="M 2.6203015e-5,288.99999 H 128.00003"
         id="path2900"
         inkscape:connector-curvature="0" />
    </g>
  </g>
</svg>
