<?xml version="1.0" encoding="UTF-8"?>
<svg height="128px" viewBox="0 0 128 128" width="128px" xmlns="http://www.w3.org/2000/svg">
    <path d="m 64 4 c -33.136719 0 -60 26.863281 -60 60 s 26.863281 60 60 60 c 10.152344 -0.054688 20.125 -2.679688 28.984375 -7.636719 c 15.511719 -1.753906 27.242187 -14.867187 27.269531 -30.476562 c 0 -0.457031 -0.011718 -0.910157 -0.035156 -1.363281 c 2.449219 -6.566407 3.730469 -13.515626 3.78125 -20.523438 c 0 -33.136719 -26.863281 -60 -60 -60 z m 0 0" fill="#deddda"/>
    <path d="m 64 8 c -30.839844 0 -56 25.160156 -56 56 s 25.160156 56 56 56 c 7.414062 0 14.492188 -1.46875 20.980469 -4.105469 c -7.449219 -1.152343 -14.207031 -5.03125 -18.964844 -10.878906 c -0.667969 0.03125 -1.339844 0.050781 -2.015625 0.050781 c -22.769531 0 -41.066406 -18.296875 -41.066406 -41.066406 s 18.296875 -41.066406 41.066406 -41.066406 c 21.261719 0 38.621094 15.960937 40.824219 36.613281 c 6.535156 3.800781 11.421875 9.894531 13.714843 17.097656 c 0.945313 -4.066406 1.460938 -8.296875 1.460938 -12.644531 c 0 -30.839844 -25.160156 -56 -56 -56 z m 0 0" fill="#3d3846"/>
    <path d="m 86.1875 38.101562 c -0.988281 0 -1.9375 0.394532 -2.636719 1.097657 l -19.5 19.527343 l -12.894531 -12.875 c -1.460938 -1.457031 -3.824219 -1.453124 -5.28125 0.003907 c -1.457031 1.460937 -1.457031 3.824219 0.003906 5.28125 l 15.535156 15.511719 c 1.046876 1.019531 2.59375 1.335937 3.957032 0.804687 c 2.132812 -2.832031 4.742187 -5.269531 7.710937 -7.207031 l 15.75 -15.773438 c 1.460938 -1.457031 1.457031 -3.824218 -0.003906 -5.28125 c -0.699219 -0.699218 -1.648437 -1.089844 -2.640625 -1.089844 z m 0 0" fill="#3d3846"/>
    <path d="m 116.253906 85.882812 c 0 14.761719 -11.964844 26.726563 -26.726562 26.726563 c -14.761719 0 -26.726563 -11.964844 -26.726563 -26.726563 c 0 -14.757812 11.964844 -26.726562 26.726563 -26.726562 c 14.761718 0 26.726562 11.96875 26.726562 26.726562 z m 0 0" fill="#e01b24"/>
    <g fill="#f6f5f4" stroke="#f6f5f4" stroke-linecap="round" stroke-linejoin="round" stroke-width="7.46666">
        <path d="m 78.644531 75.003906 l 21.765625 21.761719"/>
        <path d="m 100.410156 75.003906 l -21.765625 21.761719"/>
    </g>
</svg>
