<?xml version="1.0" encoding="UTF-8"?>
<svg height="16px" viewBox="0 0 16 16" width="16px" xmlns="http://www.w3.org/2000/svg">
    <g fill="#241f31">
        <path d="m 8 0 c -4.40625 0 -8 3.59375 -8 8 s 3.59375 8 8 8 c 1.058594 0 2.070312 -0.210938 2.996094 -0.585938 c -1.0625 -0.164062 -2.027344 -0.71875 -2.707032 -1.554687 c -0.097656 0.003906 -0.191406 0.007813 -0.289062 0.007813 c -3.253906 0 -5.867188 -2.613282 -5.867188 -5.867188 s 2.613282 -5.867188 5.867188 -5.867188 c 3.039062 0 5.515625 2.28125 5.832031 5.230469 c 0.933594 0.542969 1.632813 1.414063 1.960938 2.441407 c 0.132812 -0.578126 0.207031 -1.183594 0.207031 -1.804688 c 0 -4.40625 -3.59375 -8 -8 -8 z m 0 0"/>
        <path d="m 11.167969 4.300781 c -0.140625 0 -0.273438 0.054688 -0.375 0.15625 l -2.785157 2.789063 l -1.84375 -1.839844 c -0.207031 -0.207031 -0.546874 -0.207031 -0.753906 0.003906 c -0.207031 0.207032 -0.207031 0.542969 0 0.753906 l 2.21875 2.214844 c 0.152344 0.144532 0.371094 0.191406 0.566406 0.113282 c 0.304688 -0.402344 0.679688 -0.75 1.101563 -1.027344 l 2.25 -2.253906 c 0.210937 -0.207032 0.207031 -0.546876 0 -0.753907 c -0.101563 -0.101562 -0.234375 -0.15625 -0.378906 -0.15625 z m 0 0"/>
        <path d="m 11.644531 7.308594 c -2.105469 0 -3.816406 1.710937 -3.816406 3.816406 c 0 2.109375 1.710937 3.820312 3.816406 3.820312 c 2.109375 0 3.820313 -1.710937 3.820313 -3.820312 c 0 -2.105469 -1.710938 -3.816406 -3.820313 -3.816406 z m -1.550781 1.730468 c 0.140625 0 0.273438 0.054688 0.375 0.15625 l 1.175781 1.179688 l 1.179688 -1.179688 c 0.101562 -0.101562 0.234375 -0.15625 0.375 -0.15625 c 0.144531 0 0.277343 0.054688 0.378906 0.15625 c 0.207031 0.207032 0.207031 0.546876 0 0.753907 l -1.179687 1.175781 l 1.179687 1.179688 c 0.207031 0.207031 0.207031 0.546874 0 0.753906 c -0.207031 0.207031 -0.546875 0.207031 -0.753906 0 l -1.179688 -1.175782 l -1.175781 1.175782 c -0.207031 0.207031 -0.546875 0.207031 -0.753906 0 c -0.207032 -0.207032 -0.207032 -0.546875 0 -0.753906 l 1.179687 -1.179688 l -1.179687 -1.175781 c -0.207032 -0.207031 -0.207032 -0.546875 0 -0.753907 c 0.101562 -0.101562 0.234375 -0.15625 0.378906 -0.15625 z m 0 0"/>
    </g>
</svg>
